HIERARCHY
ROOT Hips
{
  OFFSET 0 0.240689 0
  CHANNELS 6 Xposition Yposition Zposition Zrotation Xrotation Yrotation
  JOINT Bip01_Spine0
  {
    OFFSET 0 -24.7459 49.7988
    CHANNELS 6 Xposition Yposition Zposition Zrotation Xrotation Yrotation
    JOINT Bip01_Pelvis
    {
      OFFSET 0 0 0
      CHANNELS 6 Xposition Yposition Zposition Zrotation Xrotation Yrotation
      JOINT Bip01_Spine0_Tail
      {
        OFFSET -6.47486 -3.86022 0
        CHANNELS 6 Xposition Yposition Zposition Zrotation Xrotation Yrotation
        JOINT Bip01_Spine0_Tail1
        {
          OFFSET 10.3837 -0.00825882 0
          CHANNELS 6 Xposition Yposition Zposition Zrotation Xrotation Yrotation
          JOINT Bip01_Spine0_Tail2
          {
            OFFSET 10.3837 -0.00826263 0
            CHANNELS 6 Xposition Yposition Zposition Zrotation Xrotation Yrotation
            JOINT Bip01_Spine0_Tail3
            {
              OFFSET 10.3837 -0.00825882 0
              CHANNELS 6 Xposition Yposition Zposition Zrotation Xrotation Yrotation
              JOINT Bip01_Spine0_Tail4
              {
                OFFSET 10.3837 -0.00826263 0
                CHANNELS 6 Xposition Yposition Zposition Zrotation Xrotation Yrotation
                End Site
                {
                  OFFSET 0 0 0
                }
              }
            }
          }
        }
      }
      JOINT Bip01_R_Thigh
      {
        OFFSET 0 -1.52588e-005 -8.75617
        CHANNELS 6 Xposition Yposition Zposition Zrotation Xrotation Yrotation
        JOINT Bip01_R_Calf
        {
          OFFSET 19.7638 0 0
          CHANNELS 6 Xposition Yposition Zposition Zrotation Xrotation Yrotation
          JOINT Bip01_R_Foot
          {
            OFFSET 18.6534 0 0
            CHANNELS 6 Xposition Yposition Zposition Zrotation Xrotation Yrotation
            JOINT Bip01_R_Toe0
            {
              OFFSET 5.09145 13.9567 0
              CHANNELS 6 Xposition Yposition Zposition Zrotation Xrotation Yrotation
              JOINT Bip01_R_Toe01
              {
                OFFSET 4.28803 0 0
                CHANNELS 6 Xposition Yposition Zposition Zrotation Xrotation Yrotation
                JOINT Bip01_R_Toe02
                {
                  OFFSET 3.85801 0 0
                  CHANNELS 6 Xposition Yposition Zposition Zrotation Xrotation Yrotation
                  End Site
                  {
                    OFFSET 0 0 0
                  }
                }
              }
            }
          }
        }
      }
      JOINT Bip01_L_Thigh
      {
        OFFSET 0 1.52588e-005 8.75617
        CHANNELS 6 Xposition Yposition Zposition Zrotation Xrotation Yrotation
        JOINT Bip01_L_Calf
        {
          OFFSET 19.7638 0 0
          CHANNELS 6 Xposition Yposition Zposition Zrotation Xrotation Yrotation
          JOINT Bip01_L_Foot
          {
            OFFSET 18.6534 0 0
            CHANNELS 6 Xposition Yposition Zposition Zrotation Xrotation Yrotation
            JOINT Bip01_L_Toe0
            {
              OFFSET 5.09144 13.9567 0
              CHANNELS 6 Xposition Yposition Zposition Zrotation Xrotation Yrotation
              JOINT Bip01_L_Toe01
              {
                OFFSET 4.28802 0 0
                CHANNELS 6 Xposition Yposition Zposition Zrotation Xrotation Yrotation
                JOINT Bip01_L_Toe02
                {
                  OFFSET 3.85801 0 0
                  CHANNELS 6 Xposition Yposition Zposition Zrotation Xrotation Yrotation
                  End Site
                  {
                    OFFSET 0 0 0
                  }
                }
              }
            }
          }
        }
      }
      JOINT Bip01_Spine
      {
        OFFSET 9.14835 -0.00640869 -1.1e-005
        CHANNELS 6 Xposition Yposition Zposition Zrotation Xrotation Yrotation
        JOINT Bip01_Spine1
        {
          OFFSET 8.04366 -0.00638199 0
          CHANNELS 6 Xposition Yposition Zposition Zrotation Xrotation Yrotation
          JOINT Bip01_Spine2
          {
            OFFSET 8.04367 -0.00639343 0
            CHANNELS 6 Xposition Yposition Zposition Zrotation Xrotation Yrotation
            JOINT Bip01_Spine3
            {
              OFFSET 8.04304 -0.00831222 0
              CHANNELS 6 Xposition Yposition Zposition Zrotation Xrotation Yrotation
              JOINT Bip01_Neck
              {
                OFFSET 10.6685 1.06813 0
                CHANNELS 6 Xposition Yposition Zposition Zrotation Xrotation Yrotation
                JOINT Bip01_R_Clavicle
                {
                  OFFSET -3.21661 -4.89635 -9.04802
                  CHANNELS 6 Xposition Yposition Zposition Zrotation Xrotation Yrotation
                  JOINT Bip01_R_UpperArm
                  {
                    OFFSET 19.0492 0 0
                    CHANNELS 6 Xposition Yposition Zposition Zrotation Xrotation Yrotation
                    JOINT Bip01_R_Forearm
                    {
                      OFFSET 10.3706 0 0
                      CHANNELS 6 Xposition Yposition Zposition Zrotation Xrotation Yrotation
                      JOINT Bip01_R_Hand
                      {
                        OFFSET 22.8632 0 0
                        CHANNELS 6 Xposition Yposition Zposition Zrotation Xrotation Yrotation
                        JOINT Bip01_R_Finger0
                        {
                          OFFSET 6.48259 0.103651 0.504496
                          CHANNELS 6 Xposition Yposition Zposition Zrotation Xrotation Yrotation
                          JOINT Bip01_R_Finger01
                          {
                            OFFSET 3.66847 0 0
                            CHANNELS 6 Xposition Yposition Zposition Zrotation Xrotation Yrotation
                            End Site
                            {
                              OFFSET 0 0 0
                            }
                          }
                        }
                      }
                    }
                  }
                }
                JOINT Bip01_L_Clavicle
                {
                  OFFSET -3.21661 -4.89641 9.04797
                  CHANNELS 6 Xposition Yposition Zposition Zrotation Xrotation Yrotation
                  JOINT Bip01_L_UpperArm
                  {
                    OFFSET 19.0492 0 0
                    CHANNELS 6 Xposition Yposition Zposition Zrotation Xrotation Yrotation
                    JOINT Bip01_L_Forearm
                    {
                      OFFSET 10.3706 0 0
                      CHANNELS 6 Xposition Yposition Zposition Zrotation Xrotation Yrotation
                      JOINT Bip01_L_Hand
                      {
                        OFFSET 22.8631 0 0
                        CHANNELS 6 Xposition Yposition Zposition Zrotation Xrotation Yrotation
                        JOINT Bip01_L_Finger0
                        {
                          OFFSET 6.48257 0.103655 -0.504492
                          CHANNELS 6 Xposition Yposition Zposition Zrotation Xrotation Yrotation
                          JOINT Bip01_L_Finger01
                          {
                            OFFSET 3.66844 0 0
                            CHANNELS 6 Xposition Yposition Zposition Zrotation Xrotation Yrotation
                            End Site
                            {
                              OFFSET 0 0 0
                            }
                          }
                        }
                      }
                    }
                  }
                }
                JOINT Bip01_Neck1
                {
                  OFFSET 7.52459 -0.00656509 0
                  CHANNELS 6 Xposition Yposition Zposition Zrotation Xrotation Yrotation
                  JOINT Bip01_Neck2
                  {
                    OFFSET 8.4783 -0.00588226 0
                    CHANNELS 6 Xposition Yposition Zposition Zrotation Xrotation Yrotation
                    JOINT Bip01_Head
                    {
                      OFFSET 8.41606 0 0
                      CHANNELS 6 Xposition Yposition Zposition Zrotation Xrotation Yrotation
                      JOINT EyesBlue
                      {
                        OFFSET 0 0 0
                        CHANNELS 6 Xposition Yposition Zposition Zrotation Xrotation Yrotation
                        JOINT EyesBlue_2
                        {
                          OFFSET 0 -0.500007 0
                          CHANNELS 6 Xposition Yposition Zposition Zrotation Xrotation Yrotation
                          End Site
                          {
                            OFFSET 0 0 0
                          }
                        }
                      }
                      JOINT Bip01_Head2_Eyeleds
                      {
                        OFFSET 6.52751 7.61746 2.2e-005
                        CHANNELS 6 Xposition Yposition Zposition Zrotation Xrotation Yrotation
                        End Site
                        {
                          OFFSET 0 0 0
                        }
                      }
                      JOINT Bip01_Head_Muzzle
                      {
                        OFFSET 2.88628 13.9448 3.88994
                        CHANNELS 6 Xposition Yposition Zposition Zrotation Xrotation Yrotation
                        End Site
                        {
                          OFFSET 0 0 0
                        }
                      }
                      JOINT Bip01_Head1_Jaw
                      {
                        OFFSET 0.271065 1.32405 0
                        CHANNELS 6 Xposition Yposition Zposition Zrotation Xrotation Yrotation
                        JOINT _Bip01_Head11_TungeControler
                        {
                          OFFSET 4.61616 5.82872 0
                          CHANNELS 6 Xposition Yposition Zposition Zrotation Xrotation Yrotation
                          JOINT _Bip01_Ponytail3_tunge
                          {
                            OFFSET 5.17785 2.98805 0
                            CHANNELS 6 Xposition Yposition Zposition Zrotation Xrotation Yrotation
                            JOINT Bip01_Ponytail31
                            {
                              OFFSET 5.57569 0 0
                              CHANNELS 6 Xposition Yposition Zposition Zrotation Xrotation Yrotation
                              JOINT Bip01_Ponytail32
                              {
                                OFFSET 2.93165 0 0
                                CHANNELS 6 Xposition Yposition Zposition Zrotation Xrotation Yrotation
                                JOINT Bip01_Ponytail3Nub
                                {
                                  OFFSET 3.30155 0 0
                                  CHANNELS 6 Xposition Yposition Zposition Zrotation Xrotation Yrotation
                                  End Site
                                  {
                                    OFFSET 0 0 0
                                  }
                                }
                              }
                            }
                          }
                        }
                        JOINT Bip01_Head_JawNub
                        {
                          OFFSET 15.5776 -0.000389099 0
                          CHANNELS 6 Xposition Yposition Zposition Zrotation Xrotation Yrotation
                          End Site
                          {
                            OFFSET 0 0 0
                          }
                        }
                      }
                      JOINT Bip01_Ponytail2
                      {
                        OFFSET 9.40334 1.03973 -6.51764
                        CHANNELS 6 Xposition Yposition Zposition Zrotation Xrotation Yrotation
                        JOINT Bip01_Ponytail21
                        {
                          OFFSET 2.77018 -0.00640106 1.33514e-005
                          CHANNELS 6 Xposition Yposition Zposition Zrotation Xrotation Yrotation
                          End Site
                          {
                            OFFSET 0 0 0
                          }
                        }
                      }
                      JOINT Bip01_Ponytail1
                      {
                        OFFSET 9.40368 1.03969 6.51768
                        CHANNELS 6 Xposition Yposition Zposition Zrotation Xrotation Yrotation
                        JOINT Bip01_Ponytail11
                        {
                          OFFSET 2.77018 -0.00640487 0
                          CHANNELS 6 Xposition Yposition Zposition Zrotation Xrotation Yrotation
                          End Site
                          {
                            OFFSET 0 0 0
                          }
                        }
                      }
                    }
                  }
                }
              }
            }
          }
        }
      }
    }
  }
}
MOTION
Frames:	4
Frame Time:	0.0333333
0 0 0.240689 -0 -90 -0 0.000866 -28.7007 47.2813 89.9994 0.000656217 84.7431 0 0 0 -89.9999 -0.000115278 -78.8393 -6.35284 -3.85967 -1.25355 144.807 -6.52775 -2.87046 10.3821 -0.008041 5.09998e-005 -7.80937 -0.0426251 5.83145 10.3832 -0.008117 0.000131 -0.990171 0.189809 5.42584 10.3869 -0.007484 0.000128999 25.387 0.130036 8.87632 10.3867 -0.007453 -0.000471002 24.2666 4.36246 3.49091 7e-006 -1.1e-005 -8.75617 -86.9431 11.181 -176.144 19.7638 -1e-006 2.66454e-015 -70.0602 0.000190529 0.00108915 18.6534 -1.42109e-014 -1.77636e-015 -31.7336 2.70514 5.65963 5.09144 13.9567 -1.31117e-006 110.488 1.1656 -4.86924 4.288 3e-006 -3.90799e-014 57.4832 0.000335957 9.86467e-005 3.85799 -3.55271e-015 3.55271e-015 -2.88475 0.000637914 0.000675333 -1.3e-005 7e-006 8.75617 -125.341 12.9456 -179.112 19.7638 -2e-006 -7.10543e-015 -77.4528 0.000373612 0.00340627 18.6534 -2.13163e-014 -2e-006 -13.6814 -8.27525 -0.577364 5.09144 13.9567 -2.61811e-007 101.314 -0.936934 4.88391 4.288 -1e-006 7.10543e-015 51.5472 0.000747718 0.00026257 3.85799 -4.44089e-016 3.55271e-015 -44.7469 0.00130216 0.00309851 8.97543 -0.006275 1.77103 2.5439 -0.130405 -2.94991 8.04383 -0.006286 0.000102 2.29706 -0.316618 -7.71862 8.04378 -0.006401 -2.10088e-005 0.9779 0.192599 -4.4932 8.04404 -0.008224 0.000128003 2.67241 -0.702057 -5.26371 10.6688 1.06807 -9.11695e-005 -10.7417 0.889633 0.181031 -3.39418 -4.89229 -8.9851 -169.074 -84.5281 127.909 19.0492 1e-006 -3e-006 90.3249 -8.07216 -108.317 10.3706 -1e-006 1e-006 -55.3218 0.00139961 0.00445854 22.8631 -1.42108e-014 3.55271e-015 -17.3448 8.06287 0.211084 6.48256 0.103652 0.504496 -86.6932 2.01831 -15.3677 3.66845 9.99999e-007 -6.51923e-013 39.6541 0.00107452 0.0005506 -3.45022 -4.61704 9.10863 -169.372 86.3063 -106.674 19.0492 -7.63833e-014 3e-006 90.0735 -48.8814 103.239 10.3706 -2e-006 -3.90799e-014 -98.5997 -6.11969e-005 0.00116687 22.8631 -5e-006 -9.99999e-007 26.6076 -11.7042 -2.93256 6.48255 0.103653 -0.504496 56.2943 10.9657 -11.0244 3.66844 -3e-006 -1.28786e-013 25.8344 1.13864e-005 -5.41529e-006 7.5272 -0.006637 -0.000310001 11.7206 3.08255 15.9291 8.47671 -0.006446 0.000283999 0.859006 -0.0941212 0.0648846 8.41604 -1.42109e-014 8.88178e-016 -78.98 5.97365 -4.6839 -3e-006 5e-006 -3e-006 -23.1098 1.37701e-015 90 8.69456e-008 -0.500004 4.28691e-006 111.689 90 -21.6887 0 0 0 -101.552 -1.52588e-005 -180 3.60363 13.7389 3.88993 -22.989 1.37021e-015 90 0 0 0 -82.8364 -7.01671e-015 -180 0 0 0 -114.791 1.09852e-006 -2.25268e-005 0 0 0 130.241 -1.03017e-005 4.86587e-006 0 0 0 -1.16772 -1.03485e-006 -1.68083e-007 0 0 0 -23.6485 -4.4973e-006 -2.8926e-006 0 0 0 -26.1943 -5.76027e-007 -9.30658e-007 15.5776 -0.000396 -6.99998e-006 6.36111e-015 -1.2424e-017 -2.48481e-017 9.40361 1.03979 -6.51604 -5.81408 -20.0444 20.1782 2.77011 -0.005981 0.002195 2.27114 -18.4986 -0.509807 9.40406 1.0397 6.51626 -5.81533 20.0463 -20.1753 2.77011 -0.006031 -0.002048 2.27121 18.5003 0.513248 
0 0 0.240689 -0 -90 -0 0.000866 -28.7007 47.6171 90 8.0252e-006 85.5606 0 0 0 -89.9997 -0.000238864 -79.7293 -6.37131 -3.85967 -1.15462 144.077 -6.13413 -4.34444 10.3821 -0.008041 5.09998e-005 -8.35673 -0.139493 4.36271 10.3832 -0.008117 0.000131 0.220278 0.559555 4.26715 10.3869 -0.007484 0.000129 26.3593 0.121465 8.577 10.3867 -0.007453 -0.000471002 25.4985 4.10498 3.34481 7e-006 -1.1e-005 -8.75617 -91.2588 10.0249 -175.664 19.7638 -1e-006 4.44089e-015 -76.8209 0.000123364 0.00108937 18.6534 7.10543e-015 1.77636e-015 -29.4523 2.36861 5.62409 5.09144 13.9567 -1.06838e-006 106.338 1.47783 -4.79592 4.288 3e-006 -3.01981e-014 51.822 0.000325633 0.000131321 3.85799 -3.55271e-015 -1.77636e-015 -4.36666 0.000619976 0.000691533 -1.3e-005 7e-006 8.75617 -123.977 12.3504 -179.738 19.7638 -2e-006 -8.88179e-016 -77.3348 0.000377279 0.00340619 18.6534 -3.55271e-014 -2e-006 -14.2551 -8.07974 -0.695061 5.09144 13.9567 -2.95007e-007 103.282 -0.994847 4.82356 4.288 -1e-006 7.10543e-015 51.6642 0.000748309 0.000260969 3.85799 -2.66454e-015 5.32907e-015 -43.7904 0.00135358 0.00307634 9.00158 -0.006275 1.63129 2.54417 -0.12337 -2.79166 8.04383 -0.006286 0.000102 1.80632 -0.228066 -7.03259 8.04378 -0.006401 -2.1015e-005 0.667289 0.191838 -4.22176 8.04404 -0.008224 0.000128002 2.52767 -0.640716 -4.79352 10.6688 1.06807 -9.11601e-005 -10.9158 0.856964 0.175561 -3.38466 -4.8925 -8.98859 -168.961 -84.5779 125.646 19.0492 1e-006 -3e-006 89.1252 -6.14222 -107.767 10.3706 -1e-006 1e-006 -52.5974 0.00152654 0.0044507 22.8631 0 2.66454e-015 -20.8178 9.08236 0.454534 6.48256 0.103652 0.504496 -85.6933 1.74309 -15.401 3.66844 1e-006 -6.73684e-013 38.8397 0.00106567 0.00056652 -3.43787 -4.63262 9.10534 -169.21 86.2569 -111.411 19.0492 -6.92779e-014 3e-006 92.9071 -50.8846 106.169 10.3706 -2e-006 -7.28306e-014 -92.0398 -8.98288e-006 0.00116594 22.8631 -5e-006 -9.99999e-007 28.8749 -11.4586 -2.89295 6.48255 0.103653 -0.504496 54.9491 11.2198 -10.7656 3.66844 -3e-006 -1.23457e-013 26.3962 1.12274e-005 -5.5432e-006 7.5272 -0.006637 -0.000310001 11.6375 2.88281 15.156 8.47671 -0.006446 0.000283999 0.568156 -0.0500721 0.0659956 8.41604 0 -6.21725e-015 -77.5545 5.97084 -4.66834 -3e-006 5e-006 -3e-006 -23.1098 1.37701e-015 90 8.67781e-008 -0.500004 4.28825e-006 110.688 90 -20.6878 0 0 0 -101.852 -1.52588e-005 -180 3.5857 13.7441 3.88993 -22.989 1.37021e-015 90 0 0 0 -82.8989 -7.01671e-015 -180 0 0 0 -114.928 1.11485e-006 -2.24514e-005 0 0 0 130.328 -1.0846e-005 4.89266e-006 0 0 0 -1.09276 -8.62061e-007 -1.46796e-007 0 0 0 -23.4986 -4.20625e-006 -2.72483e-006 0 0 0 -26.1943 -5.7097e-007 -9.09693e-007 15.5776 -0.000396 -6.99998e-006 3.18055e-015 2.48481e-017 -4.96962e-017 9.40361 1.03979 -6.51604 -5.81408 -20.0444 20.1782 2.77011 -0.005981 0.002195 2.27114 -18.4986 -0.509807 9.40406 1.0397 6.51626 -5.81533 20.0463 -20.1753 2.77011 -0.006031 -0.002048 2.27121 18.5003 0.513248 
0 0 0.24069 -0 -90 -0 0.000866 -28.7007 48.0906 90.0002 -0.000160458 86.8256 0 0 0 -89.9999 -8.15207e-005 -81.0489 -6.39586 -3.85967 -1.00748 142.827 -5.48302 -5.99887 10.3821 -0.008041 5.09998e-005 -9.32185 -0.239143 2.41656 10.3832 -0.008117 0.000131 2.79152 0.966939 2.81949 10.3869 -0.007484 0.000129 28.2379 -0.109634 8.48456 10.3867 -0.007453 -0.000471002 27.1651 2.90123 3.55345 7e-006 -1.1e-005 -8.75617 -95.1807 8.45833 -175.457 19.7638 -1e-006 8.88178e-016 -83.4231 6.10564e-005 0.00108896 18.6534 -1.42109e-014 -5.32907e-015 -27.5941 1.95553 5.59623 5.09144 13.9567 -7.56039e-007 99.3611 1.99593 -4.62517 4.288 3e-006 -2.84217e-014 42.1328 0.000299279 0.000184117 3.85799 0 -3.55271e-015 -6.87458 0.000588969 0.00071794 -1.3e-005 7e-006 8.75617 -122.668 11.3644 179.465 19.7638 -2e-006 -7.54952e-015 -76.206 0.00041146 0.00340609 18.6534 -3.55271e-014 -2e-006 -15.6677 -7.8488 -0.785814 5.09144 13.9567 -3.39246e-007 104.756 -1.06649 4.74114 4.288 -1e-006 8.88179e-015 51.9021 0.000748881 0.00025778 3.85799 0 -3.55271e-015 -42.1632 0.0014407 0.00303704 9.0364 -0.006275 1.4234 2.54458 -0.111654 -2.52814 8.04383 -0.006286 0.000101999 1.06544 -0.117835 -6.041 8.04378 -0.006401 -2.10063e-005 0.355516 0.1793 -3.75899 8.04404 -0.008224 0.000128002 2.1566 -0.539034 -4.1172 10.6688 1.06807 -9.11389e-005 -11.0177 0.797356 0.163971 -3.38149 -4.88461 -8.99409 -168.905 -84.6549 123.447 19.0492 1e-006 -3e-006 87.8602 -3.99181 -106.965 10.3706 -1e-006 1e-006 -49.5237 0.00167344 0.00443892 22.8631 1.15463e-014 0 -23.9966 9.90821 0.747634 6.48256 0.103652 0.504496 -84.9461 1.5381 -15.423 3.66844 1e-006 -6.78568e-013 37.9668 0.00105627 0.000583107 -3.42996 -4.64857 9.10016 -169.106 86.1812 -118.014 19.0492 -3.90798e-014 3e-006 93.8525 -45.5186 107.495 10.3706 -2e-006 -8.74856e-014 -88.9828 2.40912e-005 0.00116629 22.8631 -5e-006 -9.99999e-007 30.0922 -11.1955 -2.74971 6.48255 0.103653 -0.504496 49.271 12.2199 -9.61124 3.66844 -3e-006 -1.27898e-013 27.1983 1.05182e-005 -5.74912e-006 7.5272 -0.006637 -0.000310001 11.431 2.5577 13.8439 8.47671 -0.006446 0.000283999 0.172973 0.0108074 0.0644999 8.41604 7.10543e-015 8.88178e-015 -75.7379 5.80008 -4.53881 -3e-006 5e-006 -3e-006 -23.1098 1.37701e-015 90 8.63688e-008 -0.500004 4.29065e-006 108.854 90 -18.8536 0 0 0 -102.152 -1.52588e-005 -180 3.56778 13.7492 3.88993 -22.989 1.37021e-015 90 0 0 0 -82.9614 -7.01671e-015 -180 0 0 0 -115.066 1.0373e-006 -2.22755e-005 0 0 0 130.416 -1.18026e-005 4.88404e-006 0 0 0 -1.01779 -6.55751e-007 -1.20161e-007 0 0 0 -23.3487 -3.67012e-006 -2.42071e-006 0 0 0 -26.1943 -5.38042e-007 -8.55284e-007 15.5776 -0.000396 -6.99998e-006 4.31046e-035 4.96962e-017 -4.96962e-017 9.40361 1.03979 -6.51604 -5.81408 -20.0444 20.1782 2.77011 -0.005981 0.002195 2.27114 -18.4986 -0.509807 9.40406 1.0397 6.51626 -5.81533 20.0463 -20.1753 2.77011 -0.006031 -0.002048 2.27121 18.5003 0.513248 
0 0 0.24069 -0 -90 -0 0.000866 -28.7007 48.5956 90 -0.00017779 88.2713 0 0 0 -90.0005 0.000452408 -82.563 -6.41999 -3.85967 -0.838109 141.312 -4.66322 -7.55353 10.3821 -0.008041 5.09998e-005 -10.5138 -0.305062 0.269286 10.3832 -0.008117 0.000131 6.15096 1.30659 1.24281 10.3869 -0.007484 0.000129 30.6255 -0.475828 8.50591 10.3867 -0.007453 -0.000471002 29.0188 1.1568 4.00817 7e-006 -1.1e-005 -8.75617 -99.259 6.67754 -175.429 19.7638 -1e-006 6.21725e-015 -89.8263 1.18258e-006 0.00108878 18.6534 -7.10543e-015 2.66454e-015 -25.3362 1.64761 5.51612 5.09144 13.9567 -5.76265e-007 91.8233 2.52494 -4.37238 4.288 3e-006 -2.13163e-014 31.7301 0.00026114 0.000234965 3.85799 -1.42109e-014 0 -9.57777 0.000554378 0.000744898 -1.3e-005 7e-006 8.75617 -121.503 10.1655 178.655 19.7638 -2e-006 9.32588e-015 -74.6593 0.000459382 0.00340572 18.6534 -2.84217e-014 -2e-006 -17.3157 -7.59319 -0.848326 5.09144 13.9567 -3.92187e-007 106.103 -1.14716 4.64959 4.288 -1e-006 0 52.1494 0.000749329 0.000254473 3.85799 -7.54952e-015 1.77636e-015 -40.4153 0.00153308 0.00299213 9.07071 -0.006275 1.18409 2.54498 -0.0977981 -2.2165 8.04383 -0.006286 0.000101999 0.224621 -0.0243078 -4.90999 8.04378 -0.006401 -2.10011e-005 0.0515899 0.156506 -3.16048 8.04404 -0.008224 0.000128001 1.67001 -0.428546 -3.34793 10.6688 1.06807 -9.11053e-005 -11.0587 0.714798 0.14719 -3.38352 -4.87078 -9.00084 -168.904 -84.7489 121.247 19.0492 1e-006 -3e-006 86.6419 -1.50614 -105.991 10.3706 -1e-006 1e-006 -46.1255 0.00184034 0.00442168 22.8631 -7.54951e-015 -4.88498e-015 -27.3761 10.6858 1.06066 6.48256 0.103652 0.504496 -84.1462 1.31757 -15.4424 3.66844 1e-006 -6.08402e-013 37.2716 0.00105171 0.000593724 -3.42594 -4.66391 9.09373 -169.071 86.0869 -124.923 19.0492 -1.06581e-014 3e-006 93.8351 -37.5751 107.945 10.3706 -2e-006 -8.17124e-014 -86.6475 4.43146e-005 0.00116627 22.8631 -5e-006 -9.99999e-007 30.0649 -10.9158 -2.64751 6.48255 0.103653 -0.504496 40.6886 13.4958 -7.69786 3.66844 -3e-006 -1.26121e-013 28.12 9.63303e-006 -5.92273e-006 7.5272 -0.006637 -0.000310001 11.1426 2.15918 12.172 8.47671 -0.006446 0.000283999 -0.281722 0.0771799 0.0625326 8.41604 7.10543e-015 1.33227e-014 -73.8251 5.4623 -4.26878 -3e-006 5e-006 -3e-006 -23.1098 1.37701e-015 90 8.57481e-008 -0.500004 4.29372e-006 106.46 90 -16.4602 0 0 0 -102.452 -1.52588e-005 -180 3.54985 13.7544 3.88993 -22.989 1.37021e-015 90 0 0 0 -83.0238 -7.01671e-015 -180 0 0 0 -115.203 8.73051e-007 -2.20279e-005 0 0 0 130.503 -1.2925e-005 4.83599e-006 0 0 0 -0.942831 -4.72672e-007 -9.37928e-008 0 0 0 -23.1987 -3.04818e-006 -2.05887e-006 0 0 0 -26.1943 -4.82214e-007 -7.75044e-007 15.5776 -0.000396 -6.99998e-006 -6.36111e-015 2.48481e-017 4.96962e-017 9.40361 1.03979 -6.51604 -5.81408 -20.0444 20.1782 2.77011 -0.005981 0.002195 2.27114 -18.4986 -0.509807 9.40406 1.0397 6.51626 -5.81533 20.0463 -20.1753 2.77011 -0.006031 -0.002048 2.27121 18.5003 0.513248 
